<svg width="64" height="64" viewBox="0 0 64 64" fill="none" xmlns="http://www.w3.org/2000/svg">
<path d="M51.3867 14.2134C47.84 12.5601 44 11.3601 40 10.6667C39.9296 10.6677 39.8626 10.6965 39.8133 10.7467C39.3333 11.6267 38.7733 12.7734 38.4 13.6534C34.1573 13.0138 29.8427 13.0138 25.6 13.6534C25.2267 12.7467 24.6667 11.6267 24.16 10.7467C24.1333 10.6934 24.0533 10.6667 23.9733 10.6667C19.9733 11.3601 16.16 12.5601 12.5867 14.2134C12.56 14.2134 12.5333 14.2401 12.5067 14.2667C5.25332 25.1201 3.25332 35.6801 4.23999 46.1334C4.23999 46.1867 4.26665 46.2401 4.31999 46.2668C9.11999 49.7868 13.7333 51.9201 18.2933 53.3334C18.3733 53.3601 18.4533 53.3334 18.48 53.2801C19.5467 51.8134 20.5067 50.2667 21.3333 48.6401C21.3867 48.5334 21.3333 48.4267 21.2267 48.4001C19.7067 47.8134 18.2667 47.1201 16.8533 46.3201C16.7467 46.2668 16.7467 46.1067 16.8267 46.0267C17.12 45.8134 17.4133 45.5734 17.7067 45.3601C17.76 45.3067 17.84 45.3067 17.8933 45.3334C27.0667 49.5201 36.96 49.5201 46.0267 45.3334C46.08 45.3067 46.16 45.3067 46.2133 45.3601C46.5067 45.6001 46.8 45.8134 47.0933 46.0534C47.2 46.1334 47.2 46.2934 47.0667 46.3467C45.68 47.1734 44.2133 47.8401 42.6933 48.4267C42.5867 48.4534 42.56 48.5867 42.5867 48.6667C43.44 50.2934 44.4 51.8401 45.44 53.3067C45.52 53.3334 45.6 53.3601 45.68 53.3334C50.2667 51.9201 54.88 49.7868 59.68 46.2668C59.7333 46.2401 59.76 46.1867 59.76 46.1334C60.9333 34.0534 57.8133 23.5734 51.4933 14.2667C51.4667 14.2401 51.44 14.2134 51.3867 14.2134ZM22.72 39.7601C19.9733 39.7601 17.68 37.2267 17.68 34.1067C17.68 30.9867 19.92 28.4534 22.72 28.4534C25.5467 28.4534 27.7867 31.0134 27.76 34.1067C27.76 37.2267 25.52 39.7601 22.72 39.7601ZM41.3067 39.7601C38.56 39.7601 36.2667 37.2267 36.2667 34.1067C36.2667 30.9867 38.5067 28.4534 41.3067 28.4534C44.1333 28.4534 46.3733 31.0134 46.3467 34.1067C46.3467 37.2267 44.1333 39.7601 41.3067 39.7601Z" fill="white"/>
</svg>
