<svg width="11" height="14" viewBox="0 0 11 14" fill="none" xmlns="http://www.w3.org/2000/svg">
<path d="M2.10388 5.21533L2.10255 5.21666L2.09988 5.21866L2.09322 5.224C2.06426 5.24592 2.03623 5.26905 2.00922 5.29333C1.93917 5.35487 1.87198 5.41961 1.80788 5.48733C1.64788 5.656 1.44255 5.90666 1.24988 6.242C0.861885 6.91866 0.535885 7.92733 0.719218 9.27599C0.899885 10.6073 1.45922 11.72 2.40455 12.496C3.34722 13.2693 4.62322 13.6667 6.16655 13.6667C7.75788 13.6667 9.02855 13.07 9.86922 12.0467C10.7026 11.0327 11.0746 9.64933 10.9859 8.13733C10.9006 6.68666 10.1106 5.58599 9.41255 4.61399L9.21322 4.33599C8.45188 3.26133 7.85122 2.27133 7.99722 0.885995C8.0046 0.816272 7.99724 0.745775 7.97561 0.679081C7.95398 0.612388 7.91857 0.550989 7.87167 0.498871C7.82477 0.446753 7.76743 0.405081 7.70338 0.376562C7.63933 0.348042 7.57 0.333312 7.49988 0.333328C7.24522 0.333328 6.95322 0.411995 6.67188 0.530662C6.34608 0.670274 6.03866 0.849394 5.75655 1.06399C5.13988 1.52933 4.52322 2.23066 4.19455 3.16799C3.86655 4.10266 4.03322 4.99333 4.27322 5.642C4.43122 6.068 4.25988 6.48866 4.00188 6.61133C3.89211 6.66326 3.76651 6.67075 3.65134 6.63224C3.53616 6.59372 3.44034 6.51218 3.38388 6.40466L2.84655 5.384C2.81292 5.31996 2.7658 5.26399 2.70844 5.21994C2.65108 5.17589 2.58484 5.1448 2.51431 5.12883C2.44377 5.11286 2.3706 5.11238 2.29986 5.12743C2.22912 5.14248 2.16248 5.1727 2.10455 5.216" fill="#DE0000"/>
</svg>
