<svg width="64" height="64" viewBox="0 0 64 64" fill="none" xmlns="http://www.w3.org/2000/svg">
<path d="M31.9999 5.33333C28.498 5.33333 25.0304 6.02308 21.795 7.36321C18.5597 8.70333 15.62 10.6676 13.1437 13.1438C8.14277 18.1448 5.33325 24.9276 5.33325 32C5.33325 43.7867 12.9866 53.7867 23.5733 57.3333C24.9066 57.5467 25.3333 56.72 25.3333 56V51.4933C17.9466 53.0933 16.3733 47.92 16.3733 47.92C15.1466 44.8267 13.4133 44 13.4133 44C10.9866 42.3467 13.5999 42.4 13.5999 42.4C16.2666 42.5867 17.6799 45.1467 17.6799 45.1467C19.9999 49.2 23.9199 48 25.4399 47.36C25.6799 45.6267 26.3733 44.4533 27.1199 43.7867C21.1999 43.12 14.9866 40.8267 14.9866 30.6667C14.9866 27.7067 15.9999 25.3333 17.7333 23.44C17.4666 22.7733 16.5333 20 17.9999 16.4C17.9999 16.4 20.2399 15.68 25.3333 19.12C27.4399 18.5333 29.7333 18.24 31.9999 18.24C34.2666 18.24 36.5599 18.5333 38.6666 19.12C43.7599 15.68 45.9999 16.4 45.9999 16.4C47.4666 20 46.5333 22.7733 46.2666 23.44C47.9999 25.3333 49.0133 27.7067 49.0133 30.6667C49.0133 40.8533 42.7733 43.0933 36.8266 43.76C37.7866 44.5867 38.6666 46.2133 38.6666 48.6933V56C38.6666 56.72 39.0933 57.5733 40.4533 57.3333C51.0399 53.76 58.6666 43.7867 58.6666 32C58.6666 28.4981 57.9768 25.0305 56.6367 21.7951C55.2966 18.5598 53.3323 15.62 50.8561 13.1438C48.3799 10.6676 45.4402 8.70333 42.2048 7.36321C38.9695 6.02308 35.5018 5.33333 31.9999 5.33333Z" fill="white"/>
</svg>
