<svg width="64" height="64" viewBox="0 0 64 64" fill="none" xmlns="http://www.w3.org/2000/svg">
<path d="M32.0002 5.33325C28.4982 5.33325 25.0306 6.02301 21.7953 7.36313C18.5599 8.70326 15.6202 10.6675 13.144 13.1437C8.14301 18.1447 5.3335 24.9275 5.3335 31.9999C5.3335 43.7866 12.9868 53.7866 23.5735 57.3333C24.9068 57.5466 25.3335 56.7199 25.3335 55.9999V51.4933C17.9468 53.0933 16.3735 47.9199 16.3735 47.9199C15.1468 44.8266 13.4135 43.9999 13.4135 43.9999C10.9868 42.3466 13.6002 42.3999 13.6002 42.3999C16.2668 42.5866 17.6802 45.1466 17.6802 45.1466C20.0002 49.1999 23.9202 47.9999 25.4402 47.3599C25.6802 45.6266 26.3735 44.4533 27.1202 43.7866C21.2002 43.1199 14.9868 40.8266 14.9868 30.6666C14.9868 27.7066 16.0002 25.3333 17.7335 23.4399C17.4668 22.7733 16.5335 19.9999 18.0002 16.3999C18.0002 16.3999 20.2402 15.6799 25.3335 19.1199C27.4402 18.5333 29.7335 18.2399 32.0002 18.2399C34.2668 18.2399 36.5602 18.5333 38.6668 19.1199C43.7602 15.6799 46.0002 16.3999 46.0002 16.3999C47.4668 19.9999 46.5335 22.7733 46.2668 23.4399C48.0002 25.3333 49.0135 27.7066 49.0135 30.6666C49.0135 40.8533 42.7735 43.0933 36.8268 43.7599C37.7868 44.5866 38.6668 46.2133 38.6668 48.6933V55.9999C38.6668 56.7199 39.0935 57.5733 40.4535 57.3333C51.0402 53.7599 58.6668 43.7866 58.6668 31.9999C58.6668 28.498 57.9771 25.0304 56.637 21.795C55.2968 18.5597 53.3326 15.62 50.8563 13.1437C48.3801 10.6675 45.4404 8.70326 42.2051 7.36313C38.9697 6.02301 35.5021 5.33325 32.0002 5.33325Z" fill="white"/>
</svg>
