<svg width="64" height="64" viewBox="0 0 64 64" fill="none" xmlns="http://www.w3.org/2000/svg">
<g clip-path="url(#clip0_1183_10)">
<path d="M8.344 3.57399C5.552 5.22999 0.054 11.542 0 13.198V15.948C0 19.418 3.25 22.482 6.198 22.482C9.74 22.482 12.7 19.544 12.7 16.056C12.7 19.544 15.542 22.482 19.094 22.482C22.636 22.482 25.396 19.544 25.396 16.056C25.396 19.544 28.428 22.482 31.97 22.482H32.034C35.586 22.482 38.616 19.544 38.616 16.056C38.616 19.544 41.378 22.482 44.92 22.482C48.462 22.482 51.314 19.544 51.314 16.056C51.314 19.544 54.264 22.482 57.804 22.482C60.762 22.482 64.012 19.418 64.012 15.948V13.198C63.948 11.542 58.46 5.22999 55.658 3.57399C46.98 3.26199 40.97 3.20799 32.012 3.20799C23.044 3.21799 10.826 3.35399 8.356 3.57399H8.344ZM25.354 20.842C25.013 21.4285 24.5923 21.965 24.104 22.436V22.446C22.7128 23.8008 20.8479 24.5593 18.906 24.56C16.961 24.5636 15.093 23.7996 13.708 22.434C13.2336 21.9705 12.8293 21.4402 12.508 20.86C12.174 21.454 11.708 21.964 11.218 22.434C9.83079 23.7963 7.96429 24.5597 6.02 24.56H6.01C5.77085 24.5503 5.53497 24.501 5.312 24.414C5.06886 27.0325 4.91943 29.6588 4.864 32.288V32.298C4.854 33.352 4.854 34.204 4.842 35.402C4.906 41.632 4.228 55.58 7.594 59.008C12.802 60.216 22.386 60.768 31.988 60.778H31.998C41.612 60.768 51.184 60.216 56.392 59.008C59.758 55.582 59.08 41.632 59.144 35.402C59.134 34.204 59.134 33.352 59.122 32.298V32.288C59.0716 29.6586 58.9222 27.0321 58.674 24.414C58.4513 24.502 58.2153 24.5514 57.976 24.56H57.966C56.0217 24.5597 54.1552 23.7963 52.768 22.434H52.778C52.288 21.964 51.82 21.456 51.488 20.86H51.478C51.1597 21.4396 50.7588 21.9698 50.288 22.434C48.9006 23.7959 47.0341 24.559 45.09 24.559C43.1459 24.559 41.2794 23.7959 39.892 22.434C39.4112 21.9687 38.9972 21.439 38.662 20.86L38.64 20.828C38.296 21.444 37.88 21.974 37.41 22.434C36.0228 23.7963 34.1563 24.5597 32.212 24.56H32.202C32.14 24.56 32.066 24.56 31.994 24.55C31.922 24.56 31.848 24.56 31.776 24.56H31.766C29.8248 24.562 27.9612 23.798 26.58 22.434C26.0994 21.9716 25.689 21.4413 25.362 20.86L25.34 20.828L25.354 20.842ZM20.01 27.75C22.124 27.76 24 27.75 26.332 30.292C28.164 30.106 30.082 30.012 31.998 30.012C33.914 30.012 35.832 30.106 37.664 30.292C39.998 27.75 41.872 27.75 43.986 27.75H43.996C44.996 27.75 48.996 27.75 51.778 35.574L54.768 46.312C56.986 54.302 54.058 54.502 50.414 54.502C44.998 54.302 41.998 50.366 41.998 46.428C38.998 46.93 35.496 47.17 31.998 47.17C28.5 47.17 24.998 46.93 22.008 46.428C22.008 50.366 19.008 54.302 13.592 54.502C9.936 54.492 7.008 54.302 9.226 46.312L12.216 35.574C15.008 27.75 19.008 27.75 20.008 27.75H20.01ZM32 33.906C31.99 33.906 26.302 39.146 25.272 41L29 40.854V44.104C29 44.262 30.502 44.198 32 44.126C33.498 44.198 34.99 44.262 34.99 44.104V40.854L38.728 41C37.698 39.146 32 33.906 32 33.906Z" fill="white"/>
</g>
<defs>
<clipPath id="clip0_1183_10">
<rect width="64" height="64" fill="white"/>
</clipPath>
</defs>
</svg>
