<svg width="12" height="16" viewBox="0 0 12 16" fill="none" xmlns="http://www.w3.org/2000/svg">
<path d="M11.7301 7.32875C11.702 7.20863 11.6446 7.0973 11.5632 7.00463C11.4818 6.91197 11.3787 6.84082 11.2632 6.7975L7.86071 5.52187L8.73571 1.14687C8.7677 0.986861 8.74663 0.820786 8.6757 0.673833C8.60477 0.526881 8.48785 0.40707 8.34268 0.332573C8.1975 0.258076 8.03199 0.232959 7.87124 0.261029C7.7105 0.2891 7.5633 0.368828 7.45196 0.48812L0.451965 7.98812C0.367746 8.07826 0.307064 8.18779 0.275296 8.30699C0.243527 8.4262 0.241652 8.55139 0.269839 8.67149C0.298025 8.79159 0.355401 8.90289 0.436883 8.99551C0.518365 9.08814 0.621437 9.15923 0.736965 9.2025L4.13946 10.4781L3.26446 14.8531C3.23248 15.0131 3.25355 15.1792 3.32448 15.3262C3.39541 15.4731 3.51233 15.5929 3.6575 15.6674C3.80268 15.7419 3.96819 15.767 4.12894 15.739C4.28968 15.7109 4.43688 15.6312 4.54821 15.5119L11.5482 8.01187C11.6323 7.92173 11.693 7.81223 11.7247 7.69308C11.7564 7.57393 11.7583 7.44879 11.7301 7.32875ZM5.25321 12.5581L5.73571 10.1469C5.77061 9.97225 5.74224 9.7909 5.65567 9.63529C5.5691 9.47967 5.42999 9.35993 5.26321 9.29749L2.31259 8.19187L6.74571 3.44187L6.26322 5.85312C6.22832 6.02774 6.25669 6.20909 6.34326 6.3647C6.42983 6.52032 6.56894 6.64006 6.73571 6.7025L9.68759 7.80812L5.25321 12.5581Z" fill="#FFF176"/>
</svg>
