<svg width="14" height="14" viewBox="0 0 14 14" fill="none" xmlns="http://www.w3.org/2000/svg">
<path d="M6.99828 8.2C7.31654 8.2 7.62176 8.07358 7.84681 7.84853C8.07185 7.62349 8.19828 7.31826 8.19828 7C8.19828 6.68174 8.07185 6.37652 7.84681 6.15148C7.62176 5.92643 7.31654 5.8 6.99828 5.8C6.68002 5.8 6.3748 5.92643 6.14975 6.15148C5.92471 6.37652 5.79828 6.68174 5.79828 7C5.79828 7.31826 5.92471 7.62349 6.14975 7.84853C6.3748 8.07358 6.68002 8.2 6.99828 8.2ZM2.99828 7C2.99828 5.93914 3.41971 4.92172 4.16985 4.17158C4.92 3.42143 5.93741 3 6.99828 3C8.05915 3 9.07656 3.42143 9.82671 4.17158C10.5769 4.92172 10.9983 5.93914 10.9983 7C10.9983 8.06087 10.5769 9.07829 9.82671 9.82843C9.07656 10.5786 8.05915 11 6.99828 11C5.93741 11 4.92 10.5786 4.16985 9.82843C3.41971 9.07829 2.99828 8.06087 2.99828 7ZM6.99828 4.2C6.63058 4.2 6.26648 4.27243 5.92677 4.41314C5.58705 4.55385 5.27838 4.7601 5.01838 5.02011C4.75838 5.28011 4.55213 5.58878 4.41142 5.92849C4.2707 6.2682 4.19828 6.6323 4.19828 7C4.19828 7.36771 4.2707 7.73181 4.41142 8.07152C4.55213 8.41123 4.75838 8.7199 5.01838 8.9799C5.27838 9.23991 5.58705 9.44615 5.92677 9.58687C6.26648 9.72758 6.63058 9.8 6.99828 9.8C7.74089 9.8 8.45308 9.505 8.97818 8.9799C9.50328 8.4548 9.79828 7.74261 9.79828 7C9.79828 6.2574 9.50328 5.54521 8.97818 5.02011C8.45308 4.495 7.74089 4.2 6.99828 4.2ZM0.59668 6.9976C0.59668 5.30043 1.27088 3.67277 2.47096 2.47269C3.67104 1.2726 5.29871 0.598404 6.99588 0.598404C8.69305 0.598404 10.3207 1.2726 11.5208 2.47269C12.7209 3.67277 13.3951 5.30043 13.3951 6.9976C13.3951 8.69478 12.7209 10.3224 11.5208 11.5225C10.3207 12.7226 8.69305 13.3968 6.99588 13.3968C5.29871 13.3968 3.67104 12.7226 2.47096 11.5225C1.27088 10.3224 0.59668 8.69478 0.59668 6.9976ZM6.99668 1.7984C6.30624 1.78629 5.6203 1.91182 4.97889 2.16767C4.33748 2.42351 3.75346 2.80455 3.2609 3.28854C2.76835 3.77253 2.37713 4.34978 2.11007 4.9866C1.84301 5.62342 1.70547 6.30705 1.70547 6.9976C1.70547 7.68815 1.84301 8.37179 2.11007 9.00861C2.37713 9.64543 2.76835 10.2227 3.2609 10.7067C3.75346 11.1907 4.33748 11.5717 4.97889 11.8275C5.6203 12.0834 6.30624 12.2089 6.99668 12.1968C8.3598 12.1729 9.65901 11.6146 10.6145 10.6422C11.5701 9.66973 12.1055 8.36093 12.1055 6.9976C12.1055 5.63428 11.5701 4.32548 10.6145 3.35304C9.65901 2.3806 8.3598 1.82232 6.99668 1.7984Z" fill="#5C913B"/>
</svg>
