<svg width="64" height="64" viewBox="0 0 64 64" fill="none" xmlns="http://www.w3.org/2000/svg">
<path d="M26.6666 40L40.5066 32L26.6666 24V40ZM57.4933 19.12C57.8399 20.3733 58.0799 22.0533 58.2399 24.1867C58.4266 26.32 58.5066 28.16 58.5066 29.76L58.6666 32C58.6666 37.84 58.2399 42.1333 57.4933 44.88C56.8266 47.28 55.2799 48.8267 52.8799 49.4933C51.6266 49.84 49.3333 50.08 45.8133 50.24C42.3466 50.4267 39.1733 50.5067 36.2399 50.5067L31.9999 50.6667C20.8266 50.6667 13.8666 50.24 11.1199 49.4933C8.71992 48.8267 7.17325 47.28 6.50659 44.88C6.15992 43.6267 5.91992 41.9467 5.75992 39.8133C5.57325 37.68 5.49325 35.84 5.49325 34.24L5.33325 32C5.33325 26.16 5.75992 21.8667 6.50659 19.12C7.17325 16.72 8.71992 15.1733 11.1199 14.5067C12.3733 14.16 14.6666 13.92 18.1866 13.76C21.6533 13.5733 24.8266 13.4933 27.7599 13.4933L31.9999 13.3333C43.1733 13.3333 50.1333 13.76 52.8799 14.5067C55.2799 15.1733 56.8266 16.72 57.4933 19.12Z" fill="white"/>
</svg>
