<svg width="64" height="64" viewBox="0 0 64 64" fill="none" xmlns="http://www.w3.org/2000/svg">
<path d="M26.6668 39.9999L40.5068 31.9999L26.6668 23.9999V39.9999ZM57.4935 19.1199C57.8402 20.3733 58.0802 22.0533 58.2402 24.1866C58.4268 26.3199 58.5068 28.1599 58.5068 29.7599L58.6668 31.9999C58.6668 37.8399 58.2402 42.1333 57.4935 44.8799C56.8268 47.2799 55.2802 48.8266 52.8802 49.4933C51.6268 49.8399 49.3335 50.0799 45.8135 50.2399C42.3468 50.4266 39.1735 50.5066 36.2402 50.5066L32.0002 50.6666C20.8268 50.6666 13.8668 50.2399 11.1202 49.4933C8.72016 48.8266 7.1735 47.2799 6.50683 44.8799C6.16016 43.6266 5.92016 41.9466 5.76016 39.8133C5.5735 37.6799 5.4935 35.8399 5.4935 34.2399L5.3335 31.9999C5.3335 26.1599 5.76016 21.8666 6.50683 19.1199C7.1735 16.7199 8.72016 15.1733 11.1202 14.5066C12.3735 14.1599 14.6668 13.9199 18.1868 13.7599C21.6535 13.5733 24.8268 13.4933 27.7602 13.4933L32.0002 13.3333C43.1735 13.3333 50.1335 13.7599 52.8802 14.5066C55.2802 15.1733 56.8268 16.7199 57.4935 19.1199Z" fill="white"/>
</svg>
